<mxfile host="app.diagrams.net" modified="2022-07-22T08:45:08.327Z" agent="5.0 (Windows NT 10.0; Win64; x64) AppleWebKit/537.36 (KHTML, like Gecko) Chrome/103.0.0.0 Safari/537.36" etag="UMAsr2LNIh6HAoJF3e3L" version="20.1.3" type="github">
  <diagram id="9zXXllBpMT5JCsJ86JIt" name="Page-1">
    <mxGraphModel dx="1422" dy="762" grid="1" gridSize="10" guides="1" tooltips="1" connect="1" arrows="1" fold="1" page="1" pageScale="1" pageWidth="1169" pageHeight="827" math="0" shadow="0">
      <root>
        <mxCell id="0" />
        <mxCell id="1" parent="0" />
        <mxCell id="O-UV-DgVOMPcw2N8o06y-1" value="Kafka" style="rounded=1;whiteSpace=wrap;html=1;fontColor=#FFFFFF;strokeColor=#68B92E;fillColor=#68B92E;fontSize=14;fontStyle=1" vertex="1" parent="1">
          <mxGeometry x="445" y="180" width="280" height="40" as="geometry" />
        </mxCell>
        <mxCell id="O-UV-DgVOMPcw2N8o06y-2" value="&lt;font color=&quot;#ffffff&quot;&gt;数据采集（类似filecollector）&lt;/font&gt;" style="ellipse;whiteSpace=wrap;html=1;fillColor=#68B92E;strokeColor=#68B92E;fontSize=12;fontStyle=1" vertex="1" parent="1">
          <mxGeometry x="530" y="50" width="110" height="60" as="geometry" />
        </mxCell>
        <mxCell id="O-UV-DgVOMPcw2N8o06y-3" value="" style="endArrow=classic;html=1;rounded=0;exitX=0.5;exitY=1;exitDx=0;exitDy=0;entryX=0.5;entryY=0;entryDx=0;entryDy=0;strokeColor=#68B92E;strokeWidth=2;" edge="1" parent="1" source="O-UV-DgVOMPcw2N8o06y-2" target="O-UV-DgVOMPcw2N8o06y-1">
          <mxGeometry width="50" height="50" relative="1" as="geometry">
            <mxPoint x="560" y="210" as="sourcePoint" />
            <mxPoint x="610" y="160" as="targetPoint" />
          </mxGeometry>
        </mxCell>
        <mxCell id="O-UV-DgVOMPcw2N8o06y-5" value="" style="rounded=1;whiteSpace=wrap;html=1;fontColor=#FFFFFF;strokeColor=#68B92E;fillColor=none;dashed=1;strokeWidth=3;fontSize=14;fontStyle=1" vertex="1" parent="1">
          <mxGeometry x="520" y="563.5" width="400" height="176.5" as="geometry" />
        </mxCell>
        <mxCell id="O-UV-DgVOMPcw2N8o06y-6" value="格式化处理&lt;br&gt;Spark/Fink?" style="rounded=1;whiteSpace=wrap;html=1;fillColor=#68B92E;strokeColor=#68B92E;fontColor=#FFFFFF;" vertex="1" parent="1">
          <mxGeometry x="280" y="374" width="130" height="40" as="geometry" />
        </mxCell>
        <mxCell id="O-UV-DgVOMPcw2N8o06y-8" value="" style="endArrow=classic;html=1;rounded=0;strokeColor=#68B92E;strokeWidth=2;exitX=0.5;exitY=0;exitDx=0;exitDy=0;entryX=0.25;entryY=1;entryDx=0;entryDy=0;" edge="1" parent="1" source="O-UV-DgVOMPcw2N8o06y-6" target="O-UV-DgVOMPcw2N8o06y-1">
          <mxGeometry width="50" height="50" relative="1" as="geometry">
            <mxPoint x="560" y="390" as="sourcePoint" />
            <mxPoint x="610" y="340" as="targetPoint" />
          </mxGeometry>
        </mxCell>
        <mxCell id="O-UV-DgVOMPcw2N8o06y-9" value="" style="endArrow=classic;html=1;rounded=0;strokeColor=#68B92E;strokeWidth=2;exitX=0.5;exitY=1;exitDx=0;exitDy=0;entryX=0.5;entryY=0;entryDx=0;entryDy=0;" edge="1" parent="1" source="O-UV-DgVOMPcw2N8o06y-1" target="O-UV-DgVOMPcw2N8o06y-6">
          <mxGeometry width="50" height="50" relative="1" as="geometry">
            <mxPoint x="560" y="390" as="sourcePoint" />
            <mxPoint x="610" y="340" as="targetPoint" />
          </mxGeometry>
        </mxCell>
        <mxCell id="O-UV-DgVOMPcw2N8o06y-10" value="归并，或者加入库？&lt;br&gt;Fink?" style="rounded=1;whiteSpace=wrap;html=1;fillColor=#68B92E;strokeColor=#68B92E;fontColor=#FFFFFF;" vertex="1" parent="1">
          <mxGeometry x="800" y="374" width="130" height="40" as="geometry" />
        </mxCell>
        <mxCell id="O-UV-DgVOMPcw2N8o06y-11" value="" style="endArrow=classic;html=1;rounded=0;fontColor=#FFFFFF;strokeColor=#68B92E;strokeWidth=2;exitX=0.5;exitY=1;exitDx=0;exitDy=0;entryX=0.5;entryY=0;entryDx=0;entryDy=0;" edge="1" parent="1" source="O-UV-DgVOMPcw2N8o06y-1" target="O-UV-DgVOMPcw2N8o06y-10">
          <mxGeometry width="50" height="50" relative="1" as="geometry">
            <mxPoint x="560" y="390" as="sourcePoint" />
            <mxPoint x="610" y="340" as="targetPoint" />
          </mxGeometry>
        </mxCell>
        <mxCell id="O-UV-DgVOMPcw2N8o06y-12" value="" style="endArrow=classic;html=1;rounded=0;fontColor=#FFFFFF;strokeColor=#68B92E;strokeWidth=2;exitX=0.5;exitY=1;exitDx=0;exitDy=0;entryX=0.5;entryY=0;entryDx=0;entryDy=0;" edge="1" parent="1" source="O-UV-DgVOMPcw2N8o06y-10" target="O-UV-DgVOMPcw2N8o06y-14">
          <mxGeometry width="50" height="50" relative="1" as="geometry">
            <mxPoint x="560" y="490" as="sourcePoint" />
            <mxPoint x="865" y="610" as="targetPoint" />
          </mxGeometry>
        </mxCell>
        <mxCell id="O-UV-DgVOMPcw2N8o06y-14" value="DB1" style="shape=image;verticalLabelPosition=bottom;labelBackgroundColor=default;verticalAlign=top;aspect=fixed;imageAspect=0;image=data:image/png,iVBORw0KGgoAAAANSUhEUgAAAEMAAABDCAYAAADHyrhzAAAAAXNSR0IArs4c6QAAAARnQU1BAACxjwv8YQUAAAAJcEhZcwAADsMAAA7DAcdvqGQAAAoYSURBVHhe3ZwLkFdVHcfP/uURsQsSfx67JLgUisAi4mTRCvmIYIxmnGwGpgahcpAhKzPEdBpqHF0TRB0NwqSaEMc1aKoBS0QYIXup7CooLIjaLoUrLA+JwAV3/32/v3vu3fu///u+9/9n6eMcz+PePY/v/5xzzz3ndylTJSCXyw2A+wKClXBVNr+qrKysEtd6IPwu3AEXf1smk9kPv+gUTQw0cCTcFxGcgQZTiNggn7/CewZuA4TZIYndHVQ629nZuRjuHwgXBeS9C24JgqN1samRWs9ABe+Cdxd6QV8jJZ99RxtUy392q/fbDxW4js4O1b/3IHHna5+usnykGpu9UudQCAR5COXVwbXppEQkFgMi3AyPIgw3UgzwG6qdbX9Wrx/apnbCHWs/qK9E4yM9ylXNoMmqJjtFjRs0RfVB3A4EOQmPgtDljNR4xBYDItwAjyJMNFIMWo7vUnuPvqLW71uuTnd8oFPTgz3lmuFfVWOytTrFAKK0wLsPc8pKIyU6scSAEHdAhJ/oqHD41AH17Dur1Iv/+q1OKS4TBl+jpo+8SY3oN1anGECURyHId3Q0EpHFgBCPQYh5Oqo++PC/EOEXaiPc2aB22JdFlGyfYTpFBPkjvNkQ5YiREo7QYkAErg2egBDXGilKvY454TdN96tDJ0uyDPDla2MWqys/zpFrAEGa4FGQV4yUYEKJASE+C28NhKg2UpR6oeUp9XRT3kg560yr/oa6ftR3dUwEOQOPgjxtpPgTKIbuEX+xC7F2z1K1pXmNjnUvJg6ZqubW3Kt6ZnrrFBGlFoJw4eZLGDGeN4dGDv+tbLxV7Tj0glzrrgzvd4maO+5erFM+IXGI8TbaUAvXKgkeZLTvip4srTniXBCCtBzfrVbtuEMmd4I28NVgtUR88OwZECLv8ZlkaKyY+qoOhWfBpgk6FJ9LB1+t5k94WMekhzyG4TJfRwtwFQNC3AAh1ulo5MkyTuP9SCLMtSNmq69cvFDHRJBFEGSpjubhJcZ2iCErSz4+lzfcIulBuImQpCFp5TfrkjvV5y6YJWGIcQLehRDksCTYKBADQtwMIWRJyzFX9/eZgesIZ6XT6OJO7GXEyf/Oz9TLxEogyIMQ4/sSseEmRjPEkJeu37/5SODKMmklo2KWF7Wsy4Z8Xs27dJmOiSAXQ5C9OirkPU0ghPX2yXeNKEvsUghBzHKcvTGIxveeV7sP/03H0AvKyrjlkIclBpTKwrNu4EtXEHF/paTEFeTZt/PaNAc//iQdFuxiLIBasjHD1/BSvX2WEm4tvNz6Jx0T8t5u7cOE+5XC3iOh323OORpan9MhwWozETHQXarRK65gmDtU699azuD/Ja8e3KLePfGWhNHmCrT9OokAs2fM0L5s1UXdoYo6dpOStLydbdt0SLDaXiAG9yyjEHcyiwPLSKMc7snasIZKBhPnAHQX61zDcWMo7IIUSxR7vkmfXtyp5648QduHY6hwv0aVITATCfWM8KZlL3+dwVCwgs6KuYkRp/JB+ZjX4wpj3xlDh7gbC7AfUYxbIcZDTNzS8qRa27REbgiDmxgmbo2Ji1sZScWgEBSEQIzHIcY8irEEYtzOxN+9+bB67p1fyQ1h8BPDCz+RouSVVIyaQVPUgsselTDEeAZizOAEygNgwRxHUYjaA1h5L1dKHG0VDSgG9ziFOGKcqzjaKhok7hkkau9IShrlvd/eJgtMgmliKIbKeRkEUukZpRIkzXLs7YUYlVxn0FBEON3RrkPhsY/1YgrCvM3805pfOnIdOiT05DChhYxwfu/BOhQN+wRoVjotYZx5pTnR0uzBxgE+WrdiqExhbNlLc9W+Y41yJQyspFvlgoRI62+SUN5rgFp6lXHsgdFxGI/WLMWohxgzmbhqxyK1vXWj3BAGLzGcBDXUjbQb72RYxUXqh5PWShhi7IQY4ynGgxDje0xct2ep2hzhbMRsZLErbuInatQ6jM3WqlsmrpAwxNgIMaZzzqBFndA/5pxRbCiCXQg23Nn4qL3PMV/IvJk3gVbps8moRK1IFPxEMONmmlM0PyrLP6lDgnQIimG9s9NEiDZUcSiGIGaeThHcCLrupCY7WYeErfwfhkpmP8aMtYdOY7IoxP1lkuBVjr0eflxQMVoN6XuhhNH2o9BANkbZM8gG7YtVXRzcRAmqlB/m35p5pgnfWG1YbZcTNTxRxuOJ8hrDpz48oW7bkm9J5wUr7FXZJEIwTz8xgoTyqxdZ9Ok1qrp/jYTRM2ahZ4hlj3W8CEF2QRA5jPxpw7fUG20vSrofQYW6ESSSmZ+zwWH/jjj/1s7APlXqnsl5ZycVaDcPo61hQqzuQjvLsARV0gkr6OeKDU0UTNArNphCEEsMJP5SB8XglHaW3Qk3wdzSTNzSuHS4Ov+H/rn2BbsYTVBK9kIJbSuDMAuM2juKiV9dpld3tQlt5Vbfeh0V7MOEgtThJtpii+UtDU6DsAuSpihpCz1qwOXqU5XW4Rmp076FUwxa51s3hekdxN4l0xbFDZZnL9PELNftmr0t+MFXo1cUmEIWGKvgxjK4f0IYsdPgafyTu+6Wa2HwEsKtgm44G2TPzy8Pv/umVX9TXT+q68Ad7RsNMfboqEWBGASP2fkQ42c6GvkIwcRLmDDYG+TMx+uam1iXD52mbhrfdRYEIVxNmIirGASCPAJBvq2j6vHXFqqG9zbpWHy8BPL71U38xHX7+xH9xqiFV/xa9cj0kjiE4GddX5KIC55iEAjC57AczJ7pbFcPvDRHDE7PBT7as5+6HUIM7TtS4hCCi0paCR+TBBfyJlAXbkQmtM4XW2yaIFeVj5IL3RkK8ePaP9iFaIcIN/oJQXzFQJfi9xqzkRmt88UWm2rT8ra7wqHBOlb0+phOkafkbLjtOuqJ7zAxwXCxTupN1u15QG1ufkLHugecLOeOu8eaIwh+yB/gR71fR30JJQaBILRh4Mc3Rt8DW/fXq/rd9+nY2cXl8cmhwR5h7PqGILQYBAXwGG41Cpiqk2RCpZkk7SzPBlxZckE1ZqDYmwioIydLzhGBQ8NOJDFM0EtWoiB+wmlBg1PaWdK8sBTwpYvvGo4lNoXgE5A9wneydCOWGASC0KZjMQrN2zSlnWVj6ybVeHCzTkkX7kfwNdzx9ilACM8FVRhii0EgyEB4NLG+zUjpguaFtKqjjRjNo5LAPUtu1fEjX3OHyg6HLrw6CFGwxI5CIjFMIMpFEISm1nOMlHx42k1Rmo+/IeEul//VNo/8zE+/+Rk4t/O5i21u3jqBCPzHAihC4PdnJQeiTIJ7Cu44KhpIZ2dH7uip1lzbyX/nznSc1qnBIP/1cJ7L6m4HKnsd3Aq4Zt2G2CCPI3Cr4WYiGu9gJwSpDJMg0Ag+96bB0TCGlkLiY2gNhW+BhvLrIJ5u2f8xka0YBnkG38WiJGJ4gcafB0dhesIdQKOjW8ukhlL/A5uooe5chI1qAAAAAElFTkSuQmCC;fontColor=#68B92E;fontSize=14;fontStyle=1" vertex="1" parent="1">
          <mxGeometry x="831.5" y="580" width="67" height="67" as="geometry" />
        </mxCell>
        <mxCell id="O-UV-DgVOMPcw2N8o06y-15" value="&lt;font color=&quot;#68b92e&quot;&gt;tgz/json&lt;/font&gt;" style="text;html=1;strokeColor=none;fillColor=none;align=center;verticalAlign=middle;whiteSpace=wrap;rounded=0;fontColor=#FFFFFF;fontStyle=1" vertex="1" parent="1">
          <mxGeometry x="585" y="110" width="60" height="30" as="geometry" />
        </mxCell>
        <mxCell id="O-UV-DgVOMPcw2N8o06y-16" value="&lt;span style=&quot;background-color: initial;&quot;&gt;1&lt;/span&gt;" style="text;html=1;align=center;verticalAlign=middle;resizable=0;points=[];autosize=1;strokeColor=none;fillColor=none;fontColor=#FF3333;fontStyle=1" vertex="1" parent="1">
          <mxGeometry x="550" y="135" width="30" height="30" as="geometry" />
        </mxCell>
        <mxCell id="O-UV-DgVOMPcw2N8o06y-17" value="&lt;span style=&quot;background-color: initial;&quot;&gt;2&lt;/span&gt;" style="text;html=1;align=center;verticalAlign=middle;resizable=0;points=[];autosize=1;strokeColor=none;fillColor=none;fontColor=#FF3333;fontStyle=1" vertex="1" parent="1">
          <mxGeometry x="500" y="270" width="30" height="30" as="geometry" />
        </mxCell>
        <mxCell id="O-UV-DgVOMPcw2N8o06y-18" value="&lt;span style=&quot;background-color: initial;&quot;&gt;3. 格式化处理，&lt;br&gt;比如打上标签，属于那个se/sn/sz/smg/smp&lt;br&gt;&lt;/span&gt;" style="text;html=1;align=center;verticalAlign=middle;resizable=0;points=[];autosize=1;strokeColor=none;fillColor=none;fontColor=#FF3333;fontStyle=1" vertex="1" parent="1">
          <mxGeometry x="185" y="260" width="260" height="40" as="geometry" />
        </mxCell>
        <mxCell id="O-UV-DgVOMPcw2N8o06y-19" value="&lt;span style=&quot;background-color: initial;&quot;&gt;4. 拉取数据&lt;/span&gt;" style="text;html=1;align=center;verticalAlign=middle;resizable=0;points=[];autosize=1;strokeColor=none;fillColor=none;fontColor=#FF3333;fontStyle=1" vertex="1" parent="1">
          <mxGeometry x="685" y="270" width="80" height="30" as="geometry" />
        </mxCell>
        <mxCell id="O-UV-DgVOMPcw2N8o06y-20" value="&lt;span style=&quot;background-color: initial;&quot;&gt;5. 原始/归并数据入库&lt;/span&gt;" style="text;html=1;align=center;verticalAlign=middle;resizable=0;points=[];autosize=1;strokeColor=none;fillColor=none;fontColor=#FF3333;fontStyle=1" vertex="1" parent="1">
          <mxGeometry x="776.5" y="530" width="140" height="30" as="geometry" />
        </mxCell>
        <mxCell id="O-UV-DgVOMPcw2N8o06y-22" value="&lt;font color=&quot;#ffffff&quot;&gt;Webapi&lt;/font&gt;" style="ellipse;whiteSpace=wrap;html=1;fillColor=#68B92E;strokeColor=#68B92E;fontSize=12;fontStyle=1" vertex="1" parent="1">
          <mxGeometry x="530" y="583.5" width="110" height="60" as="geometry" />
        </mxCell>
        <mxCell id="O-UV-DgVOMPcw2N8o06y-23" value="" style="endArrow=classic;html=1;rounded=0;fontColor=#FF3333;strokeColor=#68B92E;strokeWidth=2;exitX=1;exitY=0.5;exitDx=0;exitDy=0;entryX=0;entryY=0.5;entryDx=0;entryDy=0;" edge="1" parent="1" source="O-UV-DgVOMPcw2N8o06y-22" target="O-UV-DgVOMPcw2N8o06y-14">
          <mxGeometry width="50" height="50" relative="1" as="geometry">
            <mxPoint x="560" y="450" as="sourcePoint" />
            <mxPoint x="610" y="400" as="targetPoint" />
          </mxGeometry>
        </mxCell>
        <mxCell id="O-UV-DgVOMPcw2N8o06y-24" value="&lt;span style=&quot;background-color: initial;&quot;&gt;6. 流量查询&amp;nbsp;&lt;/span&gt;" style="text;html=1;align=center;verticalAlign=middle;resizable=0;points=[];autosize=1;strokeColor=none;fillColor=none;fontColor=#FF3333;fontStyle=1" vertex="1" parent="1">
          <mxGeometry x="635" y="580" width="90" height="30" as="geometry" />
        </mxCell>
        <mxCell id="O-UV-DgVOMPcw2N8o06y-25" value="&lt;font style=&quot;font-size: 14px;&quot; color=&quot;#68b92e&quot;&gt;任务3：&lt;br&gt;数据库选型、建表、优化以及负责流量查询&lt;/font&gt;" style="text;html=1;strokeColor=none;fillColor=none;align=center;verticalAlign=middle;whiteSpace=wrap;rounded=0;fontColor=#FF3333;fontStyle=1" vertex="1" parent="1">
          <mxGeometry x="665" y="660" width="120" height="66.5" as="geometry" />
        </mxCell>
        <mxCell id="O-UV-DgVOMPcw2N8o06y-27" value="" style="rounded=1;whiteSpace=wrap;html=1;fontColor=#FFFFFF;strokeColor=#68B92E;fillColor=none;dashed=1;strokeWidth=3;fontSize=14;fontStyle=1" vertex="1" parent="1">
          <mxGeometry x="785" y="329" width="360" height="130" as="geometry" />
        </mxCell>
        <mxCell id="O-UV-DgVOMPcw2N8o06y-28" value="任务2：&lt;br&gt;入库、归并、触发告警和牵引调度通知以及归并" style="text;html=1;strokeColor=none;fillColor=none;align=center;verticalAlign=middle;whiteSpace=wrap;rounded=0;fontSize=14;fontColor=#68B92E;fontStyle=1" vertex="1" parent="1">
          <mxGeometry x="970" y="353.5" width="140" height="81" as="geometry" />
        </mxCell>
        <mxCell id="O-UV-DgVOMPcw2N8o06y-29" value="" style="rounded=1;whiteSpace=wrap;html=1;fontColor=#FFFFFF;strokeColor=#68B92E;fillColor=none;dashed=1;strokeWidth=3;fontSize=14;fontStyle=1" vertex="1" parent="1">
          <mxGeometry x="145" y="340" width="400" height="176.5" as="geometry" />
        </mxCell>
        <mxCell id="O-UV-DgVOMPcw2N8o06y-30" value="任务1：&lt;br&gt;tgz解压缩，打标签（包括内网IP、所属对象等）" style="text;html=1;strokeColor=none;fillColor=none;align=center;verticalAlign=middle;whiteSpace=wrap;rounded=0;fontSize=14;fontColor=#68B92E;" vertex="1" parent="1">
          <mxGeometry x="280" y="429" width="130" height="81" as="geometry" />
        </mxCell>
      </root>
    </mxGraphModel>
  </diagram>
</mxfile>
